<svg width="128" height="20" viewBox="0 0 128 20" fill="none" xmlns="http://www.w3.org/2000/svg">
<path d="M6.2896 18.1256C13.8368 18.1256 17.9648 11.8728 17.9648 6.45035C17.9648 6.27275 17.9648 6.09595 17.9528 5.91995C18.7559 5.33908 19.4491 4.61986 20 3.79595C19.2512 4.12795 18.4567 4.34558 17.6432 4.44155C18.4998 3.92879 19.141 3.1222 19.4472 2.17195C18.6417 2.64996 17.7605 2.98681 16.8416 3.16795C16.2229 2.5101 15.4047 2.07449 14.5135 1.92852C13.6223 1.78256 12.7078 1.93438 11.9116 2.3605C11.1154 2.78661 10.4819 3.46326 10.109 4.28574C9.73605 5.10822 9.64462 6.03067 9.8488 6.91035C8.21741 6.82852 6.62146 6.40455 5.16455 5.66596C3.70763 4.92737 2.4223 3.89067 1.392 2.62315C0.867274 3.52648 0.70656 4.59584 0.942583 5.6135C1.17861 6.63117 1.79362 7.52061 2.6624 8.10075C2.00936 8.08162 1.37054 7.90545 0.8 7.58715V7.63915C0.800259 8.58653 1.12821 9.50465 1.72823 10.2378C2.32824 10.9709 3.16338 11.474 4.092 11.6616C3.4879 11.8263 2.85406 11.8504 2.2392 11.732C2.50151 12.5472 3.01202 13.2602 3.69937 13.7711C4.38671 14.282 5.21652 14.5654 6.0728 14.5816C5.22203 15.2503 4.24776 15.7447 3.20573 16.0366C2.16369 16.3284 1.07435 16.4119 0 16.2824C1.87653 17.4865 4.05994 18.1253 6.2896 18.1224" fill="#272D37"/>
<g clip-path="url(#clip0_1_13808)">
<path d="M56 10C56 4.47715 51.5229 0 46 0C40.4771 0 36 4.47715 36 10C36 14.9912 39.6568 19.1283 44.4375 19.8785V12.8906H41.8984V10H44.4375V7.79688C44.4375 5.29063 45.9305 3.90625 48.2146 3.90625C49.3084 3.90625 50.4531 4.10156 50.4531 4.10156V6.5625H49.1922C47.95 6.5625 47.5625 7.3334 47.5625 8.125V10H50.3359L49.8926 12.8906H47.5625V19.8785C52.3432 19.1283 56 14.9912 56 10Z" fill="#272D37"/>
<path d="M49.8926 12.8906L50.3359 10H47.5625V8.125C47.5625 7.33418 47.95 6.5625 49.1922 6.5625H50.4531V4.10156C50.4531 4.10156 49.3088 3.90625 48.2146 3.90625C45.9305 3.90625 44.4375 5.29063 44.4375 7.79688V10H41.8984V12.8906H44.4375V19.8785C45.4729 20.0405 46.5271 20.0405 47.5625 19.8785V12.8906H49.8926Z" fill="white"/>
</g>
<path d="M71.9999 1.43266C71.9999 0.641875 72.6619 0 73.478 0H90.5218C91.3382 0 91.9999 0.641875 91.9999 1.43266V18.5676C91.9999 19.3586 91.3382 20 90.5218 20H73.478C72.662 20 71.9999 19.3587 71.9999 18.5678V1.43242V1.43266Z" fill="#272D37"/>
<path d="M78.0777 16.7374V7.73329H75.0849V16.7374H78.078H78.0777ZM76.5819 6.50415C77.6253 6.50415 78.2749 5.81274 78.2749 4.94868C78.2554 4.06493 77.6253 3.39282 76.6017 3.39282C75.5774 3.39282 74.9084 4.06493 74.9084 4.9486C74.9084 5.81267 75.5578 6.50407 76.5623 6.50407H76.5817L76.5819 6.50415ZM79.7342 16.7374H82.7268V11.7096C82.7268 11.4409 82.7463 11.1714 82.8254 10.9795C83.0416 10.4416 83.5341 9.88478 84.361 9.88478C85.4437 9.88478 85.877 10.7104 85.877 11.9209V16.7374H88.8695V11.5747C88.8695 8.80915 87.3933 7.5222 85.4243 7.5222C83.81 7.5222 83.101 8.42446 82.7071 9.03899H82.727V7.7336H79.7344C79.7734 8.57829 79.7341 16.7377 79.7341 16.7377L79.7342 16.7374Z" fill="white"/>
<g clip-path="url(#clip1_1_13808)">
<path d="M118 20C123.523 20 128 15.5228 128 10C128 4.47715 123.523 0 118 0C112.477 0 108 4.47715 108 10C108 15.5228 112.477 20 118 20Z" fill="#272D37"/>
<path fill-rule="evenodd" clip-rule="evenodd" d="M112.527 9.89446C115.442 8.62435 117.386 7.78702 118.358 7.38246C121.136 6.22737 121.713 6.02672 122.089 6.02009C122.171 6.01863 122.356 6.03913 122.476 6.13635C122.577 6.21844 122.605 6.32934 122.619 6.40717C122.632 6.485 122.648 6.6623 122.635 6.80083C122.485 8.38207 121.834 12.2193 121.502 13.9903C121.362 14.7397 121.086 14.991 120.819 15.0155C120.238 15.069 119.797 14.6318 119.235 14.2631C118.355 13.6861 117.857 13.327 117.003 12.764C116.016 12.1134 116.656 11.7558 117.218 11.1714C117.366 11.0184 119.924 8.69115 119.974 8.48002C119.98 8.45362 119.986 8.3552 119.927 8.30323C119.869 8.25125 119.783 8.26903 119.72 8.28316C119.632 8.3032 118.226 9.23252 115.502 11.0711C115.103 11.3452 114.742 11.4787 114.418 11.4717C114.061 11.464 113.374 11.2698 112.863 11.1039C112.237 10.9003 111.739 10.7927 111.783 10.4469C111.805 10.2669 112.053 10.0827 112.527 9.89446Z" fill="white"/>
</g>
<defs>
<clipPath id="clip0_1_13808">
<rect width="20" height="20" fill="white" transform="translate(36)"/>
</clipPath>
<clipPath id="clip1_1_13808">
<rect width="20" height="20" fill="white" transform="translate(108)"/>
</clipPath>
</defs>
</svg>
